<svg xmlns="http://www.w3.org/2000/svg" width="40" height="32" fill="none"><path fill="#7289DA" d="M33.884 3.381A33.08 33.08 0 0 0 25.63.842c-.39.697-.742 1.414-1.057 2.149a30.732 30.732 0 0 0-9.158 0A22.765 22.765 0 0 0 14.359.842 33.314 33.314 0 0 0 6.1 3.387C.878 11.114-.538 18.65.17 26.077a33.265 33.265 0 0 0 10.121 5.081 24.452 24.452 0 0 0 2.168-3.495 21.518 21.518 0 0 1-3.414-1.63c.286-.207.566-.422.837-.63a23.775 23.775 0 0 0 20.236 0c.274.224.554.438.837.63a21.612 21.612 0 0 1-3.42 1.633 24.228 24.228 0 0 0 2.168 3.492A33.114 33.114 0 0 0 39.83 26.08c.83-8.614-1.419-16.08-5.946-22.699ZM13.355 21.509c-1.972 0-3.602-1.79-3.602-3.992 0-2.203 1.573-4.009 3.596-4.009s3.64 1.806 3.605 4.009c-.034 2.202-1.588 3.992-3.599 3.992Zm13.29 0c-1.976 0-3.6-1.79-3.6-3.992 0-2.203 1.573-4.009 3.6-4.009 2.026 0 3.63 1.806 3.596 4.009-.035 2.202-1.586 3.992-3.596 3.992Z"/></svg>