<svg width="25" height="37" viewBox="0 0 25 37" fill="none" xmlns="http://www.w3.org/2000/svg">
<path d="M6.25 36.7909C9.7 36.7909 12.5 34.0601 12.5 30.6954V24.6H6.25C2.8 24.6 0 27.3307 0 30.6954C0 34.0601 2.8 36.7909 6.25 36.7909Z" fill="#0ACF83"/>
<path d="M0 18.5045C0 15.1398 2.8 12.409 6.25 12.409H12.5V24.5999H6.25C2.8 24.5999 0 21.8692 0 18.5045Z" fill="#A259FF"/>
<path d="M0.00012207 6.31355C0.00012207 2.94885 2.80012 0.218079 6.25012 0.218079H12.5001V12.409H6.25012C2.80012 12.409 0.00012207 9.67825 0.00012207 6.31355Z" fill="#F24E1E"/>
<path d="M12.5001 0.218079H18.7501C22.2001 0.218079 25.0001 2.94885 25.0001 6.31355C25.0001 9.67825 22.2001 12.409 18.7501 12.409H12.5001V0.218079Z" fill="#FF7262"/>
<path d="M25.0001 18.5045C25.0001 21.8692 22.2001 24.5999 18.7501 24.5999C15.3001 24.5999 12.5001 21.8692 12.5001 18.5045C12.5001 15.1398 15.3001 12.409 18.7501 12.409C22.2001 12.409 25.0001 15.1398 25.0001 18.5045Z" fill="#1ABCFE"/>
</svg>
