<svg xmlns="http://www.w3.org/2000/svg" width="25" height="37" fill="none"><path fill="#0ACF83" d="M6.25 36.79c3.45 0 6.25-2.73 6.25-6.095V24.6H6.25C2.8 24.6 0 27.33 0 30.695c0 3.365 2.8 6.096 6.25 6.096Z"/><path fill="#A259FF" d="M0 18.505c0-3.365 2.8-6.096 6.25-6.096h6.25v12.19H6.25C2.8 24.6 0 21.87 0 18.505Z"/><path fill="#F24E1E" d="M0 6.314C0 2.949 2.8.218 6.25.218h6.25V12.41H6.25C2.8 12.409 0 9.679 0 6.314Z"/><path fill="#FF7262" d="M12.5.218h6.25C22.2.218 25 2.948 25 6.314c0 3.364-2.8 6.095-6.25 6.095H12.5V.219Z"/><path fill="#1ABCFE" d="M25 18.505c0 3.364-2.8 6.095-6.25 6.095s-6.25-2.73-6.25-6.096c0-3.364 2.8-6.095 6.25-6.095S25 15.139 25 18.504Z"/></svg>