<svg xmlns="http://www.w3.org/2000/svg" width="40" height="40" fill="none"><path fill="#fff" fill-rule="evenodd" d="M20.017 0C8.947 0 0 9.167 0 20.507c0 9.065 5.733 16.738 13.687 19.454.994.204 1.358-.441 1.358-.984 0-.475-.032-2.105-.032-3.803-5.569 1.223-6.728-2.444-6.728-2.444-.895-2.377-2.22-2.988-2.22-2.988-1.823-1.256.132-1.256.132-1.256 2.022.136 3.082 2.105 3.082 2.105 1.79 3.123 4.673 2.24 5.833 1.697.165-1.324.696-2.24 1.26-2.75-4.442-.475-9.114-2.24-9.114-10.118 0-2.24.795-4.074 2.054-5.5-.199-.509-.895-2.614.2-5.432 0 0 1.69-.543 5.5 2.105a18.943 18.943 0 0 1 5.005-.68c1.69 0 3.413.239 5.003.68 3.812-2.648 5.502-2.105 5.502-2.105 1.094 2.818.397 4.923.199 5.432 1.292 1.426 2.054 3.26 2.054 5.5 0 7.877-4.672 9.609-9.146 10.118.729.645 1.358 1.867 1.358 3.803 0 2.75-.032 4.957-.032 5.636 0 .543.364 1.188 1.358.985C34.267 37.245 40 29.572 40 20.507 40.033 9.167 31.052 0 20.017 0Z" clip-rule="evenodd"/></svg>