<svg xmlns="http://www.w3.org/2000/svg" width="40" height="37" fill="none"><path fill="#76B3E1" d="M39.385 8.188S26.295-1.25 16.168.928l-.74.242c-1.483.484-2.718 1.21-3.459 2.178l-.494.726-3.704 6.292 6.421 1.21c2.717 1.694 6.175 2.42 9.386 1.694l11.361 2.178 4.446-7.26Z"/><path fill="url(#a)" d="M39.385 8.188S26.295-1.25 16.168.928l-.74.242c-1.483.484-2.718 1.21-3.459 2.178l-.494.726-3.704 6.292 6.421 1.21c2.717 1.694 6.175 2.42 9.386 1.694l11.361 2.178 4.446-7.26Z" opacity=".3"/><path fill="#518AC8" d="m11.97 8.188-.989.242c-4.198 1.21-5.433 5.082-3.21 8.47 2.47 3.146 7.656 4.84 11.855 3.63l15.313-5.082S21.85 6.01 11.97 8.188Z"/><path fill="url(#b)" d="m11.97 8.188-.989.242c-4.198 1.21-5.433 5.082-3.21 8.47 2.47 3.146 7.656 4.84 11.855 3.63l15.313-5.082S21.85 6.01 11.97 8.188Z" opacity=".3"/><path fill="url(#c)" d="M32.222 19.078a11.125 11.125 0 0 0-5.361-3.589 11.333 11.333 0 0 0-6.494-.04l-15.313 4.84-4.94 8.47 27.663 4.598 4.94-8.712c.987-1.694.74-3.63-.495-5.567Z"/><path fill="url(#d)" d="M27.283 27.549a11.124 11.124 0 0 0-5.362-3.59 11.334 11.334 0 0 0-6.494-.04L.114 28.759s13.09 9.68 23.217 7.26l.74-.242c4.2-1.21 5.682-5.082 3.212-8.228Z"/><defs><linearGradient id="a" x1="5.918" x2="36.426" y1=".444" y2="15.574" gradientUnits="userSpaceOnUse"><stop offset=".1" stop-color="#76B3E1"/><stop offset=".3" stop-color="#DCF2FD"/><stop offset="1" stop-color="#76B3E1"/></linearGradient><linearGradient id="b" x1="22.788" x2="17.601" y1="7.607" y2="25.235" gradientUnits="userSpaceOnUse"><stop stop-color="#76B3E1"/><stop offset=".5" stop-color="#4377BB"/><stop offset="1" stop-color="#1F3B77"/></linearGradient><linearGradient id="c" x1="3.671" x2="34.363" y1="15.255" y2="36.552" gradientUnits="userSpaceOnUse"><stop stop-color="#315AA9"/><stop offset=".5" stop-color="#518AC8"/><stop offset="1" stop-color="#315AA9"/></linearGradient><linearGradient id="d" x1="17.7" x2="5.62" y1="17.747" y2="62.958" gradientUnits="userSpaceOnUse"><stop stop-color="#4377BB"/><stop offset=".5" stop-color="#1A336B"/><stop offset="1" stop-color="#1A336B"/></linearGradient></defs></svg>