<svg xmlns="http://www.w3.org/2000/svg" width="34" height="40" fill="none"><path fill="#FF3E00" d="M30.995 5.16c-3.68-5.189-11.004-6.709-16.27-3.437L5.444 7.54C2.911 9.093 1.156 11.638.65 14.514c-.439 2.413-.068 4.891 1.114 7.04a9.86 9.86 0 0 0-1.587 3.9 10.939 10.939 0 0 0 1.924 8.395c3.713 5.189 11.004 6.709 16.27 3.437l9.283-5.784c2.531-1.553 4.286-4.098 4.793-6.974.438-2.412.067-4.891-1.114-7.04a9.86 9.86 0 0 0 1.586-3.9 10.713 10.713 0 0 0-1.924-8.428Z"/><path fill="#fff" d="M13.814 34.344c-3.004.76-6.143-.396-7.898-2.875-1.08-1.454-1.486-3.272-1.182-5.057.068-.297.135-.562.203-.86l.169-.528.472.33a12.417 12.417 0 0 0 3.646 1.785l.337.1-.034.33c-.033.463.102.958.372 1.355a2.257 2.257 0 0 0 2.396.892c.203-.066.405-.132.574-.231l9.249-5.784c.472-.297.776-.727.877-1.256a2.017 2.017 0 0 0-.337-1.52c-.54-.76-1.485-1.091-2.397-.86-.202.067-.405.133-.573.232l-3.545 2.214a6.352 6.352 0 0 1-1.89.793c-3.004.76-6.143-.396-7.899-2.875-1.046-1.454-1.485-3.272-1.147-5.057.304-1.718 1.384-3.272 2.903-4.197l9.282-5.784c.574-.364 1.215-.628 1.89-.826 3.005-.76 6.144.396 7.899 2.875 1.08 1.454 1.485 3.272 1.181 5.057a8.13 8.13 0 0 1-.236.86l-.169.528-.472-.33a12.418 12.418 0 0 0-3.646-1.785l-.337-.1.034-.33a2.178 2.178 0 0 0-.372-1.355c-.54-.76-1.485-1.09-2.396-.86-.203.067-.405.133-.574.232l-9.249 5.784a1.873 1.873 0 0 0-.878 1.256c-.1.529.034 1.09.338 1.52.54.76 1.485 1.09 2.397.86.202-.067.405-.133.573-.232l3.545-2.214c.573-.364 1.215-.628 1.89-.827 3.004-.76 6.143.397 7.898 2.876 1.08 1.454 1.486 3.272 1.182 5.057-.304 1.718-1.384 3.272-2.903 4.197l-9.283 5.784c-.573.364-1.215.628-1.89.826Z"/></svg>