<svg xmlns="http://www.w3.org/2000/svg" width="43" height="27" fill="none"><path fill="#07B6D5" d="M21.032.833c-7.565.236-9.814 5.543-10.329 8.419.671-1.066 2.787-3.405 5.902-3.405 3.63 0 6.394 3.98 8.08 5.222 2.049 1.51 6.166 3.502 11.57 1.886 4.31-1.288 6.308-5.781 6.745-7.913-2.084 2.784-5.246 4.456-9.157 2.485C31.149 6.169 29.135.58 21.032.833ZM10.328 13.461C2.764 13.698.515 19.005 0 21.881c.671-1.066 2.787-3.405 5.902-3.405 3.63 0 6.394 3.98 8.08 5.222 2.049 1.51 6.165 3.502 11.57 1.886 4.31-1.288 6.308-5.781 6.745-7.913-2.085 2.784-5.246 4.455-9.158 2.485-2.693-1.358-4.707-6.947-12.81-6.694Z"/></svg>