<?xml version="1.0" standalone="no"?>
<!DOCTYPE svg PUBLIC "-//W3C//DTD SVG 20010904//EN"
 "http://www.w3.org/TR/2001/REC-SVG-20010904/DTD/svg10.dtd">
<svg version="1.0" xmlns="http://www.w3.org/2000/svg"
 width="1024.000000pt" height="1024.000000pt" viewBox="0 0 1024.000000 1024.000000"
 preserveAspectRatio="xMidYMid meet">

<g transform="translate(0.000000,1024.000000) scale(0.100000,-0.100000)"
fill="#000000" stroke="none">
<path d="M4780 10229 c-1112 -74 -2168 -509 -3015 -1243 -158 -137 -445 -430
-575 -586 -916 -1102 -1326 -2502 -1149 -3920 125 -1006 544 -1943 1213 -2715
137 -158 430 -445 586 -575 1102 -916 2502 -1326 3920 -1149 1006 125 1943
544 2715 1213 158 137 445 430 575 586 916 1102 1326 2502 1149 3920 -125
1006 -544 1943 -1213 2715 -137 158 -430 445 -586 575 -939 780 -2098 1197
-3305 1188 -104 0 -246 -5 -315 -9z m625 -659 c1465 -98 2776 -894 3534 -2148
852 -1410 852 -3195 0 -4604 -85 -140 -240 -367 -251 -368 -3 0 -11 14 -17 31
-6 18 -53 73 -103 124 -109 108 -216 169 -315 179 -32 4 -115 14 -186 23 -158
20 -333 9 -562 -36 -142 -29 -128 -32 -203 45 -37 38 -101 106 -142 150 -76
81 -189 163 -306 222 -82 41 -216 66 -314 58 -41 -3 -88 -7 -105 -9 l-30 -2
-6 110 c-21 360 6 907 45 939 7 6 17 24 20 39 5 23 10 26 20 18 11 -9 15 -6
20 11 3 13 6 31 6 41 0 28 52 88 71 82 13 -4 18 3 23 30 4 19 11 35 17 35 12
0 39 62 32 73 -3 5 6 20 18 34 13 13 23 28 23 31 -3 16 25 40 76 64 90 42 204
132 243 190 62 95 80 137 113 272 19 77 28 480 12 545 -16 68 -51 131 -96 174
-33 32 -40 46 -40 79 -1 22 3 48 7 57 20 40 34 100 36 153 1 31 6 63 12 70 10
12 22 137 28 288 2 36 11 85 20 109 10 27 13 55 10 70 -14 50 -21 191 -10 194
5 2 2 15 -8 30 -15 23 -15 27 -2 34 13 8 13 14 -2 53 -9 25 -23 52 -30 61 -7
8 -13 18 -13 21 0 4 -20 41 -45 82 -25 42 -45 79 -45 82 0 12 -101 133 -134
161 -93 78 -205 153 -228 153 -5 0 -21 11 -36 25 -15 14 -32 25 -39 25 -7 0
-13 6 -13 13 0 14 23 15 88 2 47 -9 42 18 -8 50 -22 14 -40 31 -40 38 0 6 -14
20 -30 29 -30 17 -40 12 -18 -10 21 -21 2 -23 -20 -2 -23 22 -64 41 -97 45
-11 1 -23 3 -27 4 -4 0 -9 9 -12 19 -7 21 -102 69 -113 58 -4 -4 -1 -11 7 -16
8 -5 12 -12 8 -15 -12 -12 -65 24 -108 74 -63 72 -126 116 -260 180 -36 18
-73 36 -82 41 -10 6 -29 10 -43 10 -14 0 -28 7 -31 15 -4 9 -13 13 -23 10 -9
-2 -29 2 -45 10 -15 8 -32 15 -37 15 -10 0 -43 26 -76 59 -13 13 -23 19 -23
12 0 -7 -9 -3 -21 8 -11 10 -41 25 -67 32 -26 7 -73 23 -104 36 -68 27 -75 28
-58 8 10 -12 2 -11 -41 4 -30 10 -60 16 -67 14 -7 -3 -18 0 -25 5 -7 6 -42 13
-77 16 -36 3 -113 11 -172 17 -82 9 -114 9 -140 -1 -18 -6 -69 -16 -113 -20
-44 -5 -102 -14 -130 -19 -27 -6 -122 -21 -210 -32 -102 -14 -164 -27 -174
-36 -10 -11 -26 -13 -55 -8 -58 9 -137 6 -155 -6 -12 -7 -5 -8 24 -4 22 4 37
4 34 0 -4 -3 -85 -20 -180 -36 -96 -16 -182 -32 -193 -35 -12 -4 -16 -2 -12 5
8 13 -6 15 -19 2 -6 -4 -50 -20 -100 -35 -130 -39 -230 -91 -291 -153 -57 -57
-108 -135 -101 -155 2 -7 11 3 19 22 28 65 95 137 166 180 43 25 75 38 86 34
9 -4 24 0 34 7 29 24 58 37 103 49 24 6 52 13 62 16 9 3 17 1 17 -4 0 -9 -106
-52 -130 -52 -7 0 -28 -11 -46 -25 -36 -27 -50 -31 -56 -14 -2 6 -30 -10 -62
-36 -34 -28 -53 -50 -47 -54 7 -5 -7 -30 -37 -67 -26 -33 -53 -70 -59 -82 -14
-24 -18 -122 -5 -106 8 9 26 64 36 114 7 30 123 149 189 191 26 17 65 33 87
36 22 3 40 9 40 13 0 11 69 37 130 49 128 24 144 24 90 -4 -34 -17 -44 -19
-35 -5 3 6 -1 10 -9 10 -9 0 -16 -7 -16 -16 0 -13 -7 -15 -39 -9 -24 4 -42 2
-46 -4 -3 -6 -13 -11 -21 -11 -8 0 -26 -11 -40 -25 -19 -19 -35 -25 -69 -25
-36 0 -48 -5 -61 -25 -19 -29 -12 -45 16 -38 32 9 23 -13 -20 -47 -23 -18 -47
-47 -55 -66 -8 -19 -18 -34 -22 -34 -4 0 -9 -15 -10 -33 -6 -76 -221 -385
-259 -370 -8 3 -14 1 -14 -5 0 -5 -9 -12 -20 -15 -20 -5 -29 -37 -9 -37 5 0 7
-5 4 -10 -4 -6 -10 -8 -15 -5 -10 6 -31 -51 -24 -69 3 -8 -16 -31 -44 -54 -45
-38 -49 -45 -50 -87 0 -25 -5 -51 -10 -58 -6 -7 -10 -40 -10 -73 1 -34 -2 -66
-6 -72 -3 -6 -2 -13 3 -17 6 -3 7 -22 4 -43 -3 -20 -6 -59 -8 -87 -1 -27 -5
-57 -8 -65 -32 -83 -49 -345 -20 -316 15 15 34 -50 28 -96 -6 -40 -2 -57 21
-104 29 -59 29 -58 24 -244 -1 -81 6 -183 17 -215 8 -25 11 -38 18 -100 4 -27
14 -65 22 -84 40 -88 65 -180 70 -259 6 -79 9 -88 39 -120 26 -28 32 -41 27
-63 -3 -16 -2 -36 2 -46 5 -10 9 -31 11 -48 5 -61 34 -164 61 -225 54 -118
201 -271 298 -310 65 -26 125 -66 125 -84 1 -6 43 -56 95 -110 52 -54 95 -104
95 -111 0 -6 11 -22 25 -35 14 -13 25 -27 25 -32 0 -4 17 -36 38 -70 54 -89
55 -92 57 -204 1 -55 7 -138 13 -185 26 -206 34 -359 27 -544 -8 -227 -8 -221
-4 -315 4 -103 -3 -120 -49 -120 -21 0 -46 6 -57 13 -11 8 -51 22 -90 32 -38
11 -106 36 -150 56 -44 20 -99 43 -123 50 -27 8 -51 23 -64 42 -20 28 -23 29
-82 23 -76 -9 -163 16 -262 74 -38 22 -73 40 -77 40 -5 0 -22 11 -37 23 -40
34 -137 53 -186 37 -49 -17 -120 -83 -149 -140 -62 -122 -97 -226 -101 -293
-2 -37 -5 -71 -8 -75 -2 -4 -48 -34 -100 -67 -161 -99 -255 -211 -317 -376
-53 -141 -60 -156 -89 -177 l-27 -20 -55 56 c-30 31 -88 95 -129 142 -1193
1370 -1437 3320 -618 4942 804 1591 2491 2555 4264 2438z m-1865 -1499 c0 -10
-35 -21 -69 -21 -24 0 -24 0 -5 15 21 16 74 20 74 6z m3165 -541 c3 -5 1 -10
-4 -10 -6 0 -11 5 -11 10 0 6 2 10 4 10 3 0 8 -4 11 -10z m96 -80 c30 -28 45
-46 34 -41 -28 14 -112 91 -99 91 5 0 35 -23 65 -50z m279 -408 c0 -15 -2 -15
-10 -2 -13 20 -13 33 0 25 6 -3 10 -14 10 -23z m-20 -734 c0 -18 -2 -20 -9 -8
-6 8 -7 18 -5 22 9 14 14 9 14 -14z"/>
<path d="M3648 8283 c6 -2 18 -2 25 0 6 3 1 5 -13 5 -14 0 -19 -2 -12 -5z"/>
<path d="M6640 7682 c0 -5 14 -21 30 -37 21 -20 30 -24 30 -14 0 9 -10 25 -23
37 -24 23 -37 28 -37 14z"/>
<path d="M6710 7661 c0 -5 7 -12 16 -15 14 -5 15 -4 4 9 -14 17 -20 19 -20 6z"/>
</g>
</svg>
