<svg xmlns="http://www.w3.org/2000/svg" width="1365.333" height="1365.333" version="1.0" viewBox="0 0 1024 1024"><path d="M478 1.1C366.8 8.5 261.2 52 176.5 125.4c-15.8 13.7-44.5 43-57.5 58.6C27.4 294.2-13.6 434.2 4.1 576c12.5 100.6 54.4 194.3 121.3 271.5 13.7 15.8 43 44.5 58.6 57.5 110.2 91.6 250.2 132.6 392 114.9 100.6-12.5 194.3-54.4 271.5-121.3 15.8-13.7 44.5-43 57.5-58.6 91.6-110.2 132.6-250.2 114.9-392-12.5-100.6-54.4-194.3-121.3-271.5-13.7-15.8-43-44.5-58.6-57.5C746.1 41 630.2-.7 509.5.2c-10.4 0-24.6.5-31.5.9zM540.5 67c146.5 9.8 277.6 89.4 353.4 214.8 85.2 141 85.2 319.5 0 460.4-8.5 14-24 36.7-25.1 36.8-.3 0-1.1-1.4-1.7-3.1-.6-1.8-5.3-7.3-10.3-12.4-10.9-10.8-21.6-16.9-31.5-17.9-3.2-.4-11.5-1.4-18.6-2.3-15.8-2-33.3-.9-56.2 3.6-14.2 2.9-12.8 3.2-20.3-4.5-3.7-3.8-10.1-10.6-14.2-15-7.6-8.1-18.9-16.3-30.6-22.2-8.2-4.1-21.6-6.6-31.4-5.8-4.1.3-8.8.7-10.5.9l-3 .2-.6-11c-2.1-36 .6-90.7 4.5-93.9.7-.6 1.7-2.4 2-3.9.5-2.3 1-2.6 2-1.8 1.1.9 1.5.6 2-1.1.3-1.3.6-3.1.6-4.1 0-2.8 5.2-8.8 7.1-8.2 1.3.4 1.8-.3 2.3-3 .4-1.9 1.1-3.5 1.7-3.5 1.2 0 3.9-6.2 3.2-7.3-.3-.5.6-2 1.8-3.4 1.3-1.3 2.3-2.8 2.3-3.1-.3-1.6 2.5-4 7.6-6.4 9-4.2 20.4-13.2 24.3-19 6.2-9.5 8-13.7 11.3-27.2 1.9-7.7 2.8-48 1.2-54.5-1.6-6.8-5.1-13.1-9.6-17.4-3.3-3.2-4-4.6-4-7.9-.1-2.2.3-4.8.7-5.7 2-4 3.4-10 3.6-15.3.1-3.1.6-6.3 1.2-7 1-1.2 2.2-13.7 2.8-28.8.2-3.6 1.1-8.5 2-10.9 1-2.7 1.3-5.5 1-7-1.4-5-2.1-19.1-1-19.4.5-.2.2-1.5-.8-3-1.5-2.3-1.5-2.7-.2-3.4 1.3-.8 1.3-1.4-.2-5.3-.9-2.5-2.3-5.2-3-6.1-.7-.8-1.3-1.8-1.3-2.1 0-.4-2-4.1-4.5-8.2-2.5-4.2-4.5-7.9-4.5-8.2 0-1.2-10.1-13.3-13.4-16.1-9.3-7.8-20.5-15.3-22.8-15.3-.5 0-2.1-1.1-3.6-2.5s-3.2-2.5-3.9-2.5c-.7 0-1.3-.6-1.3-1.3 0-1.4 2.3-1.5 8.8-.2 4.7.9 4.2-1.8-.8-5-2.2-1.4-4-3.1-4-3.8 0-.6-1.4-2-3-2.9-3-1.7-4-1.2-1.8 1 2.1 2.1.2 2.3-2 .2-2.3-2.2-6.4-4.1-9.7-4.5-1.1-.1-2.3-.3-2.7-.4-.4 0-.9-.9-1.2-1.9-.7-2.1-10.2-6.9-11.3-5.8-.4.4-.1 1.1.7 1.6.8.5 1.2 1.2.8 1.5-1.2 1.2-6.5-2.4-10.8-7.4-6.3-7.2-12.6-11.6-26-18-3.6-1.8-7.3-3.6-8.2-4.1-1-.6-2.9-1-4.3-1s-2.8-.7-3.1-1.5c-.4-.9-1.3-1.3-2.3-1-.9.2-2.9-.2-4.5-1-1.5-.8-3.2-1.5-3.7-1.5-1 0-4.3-2.6-7.6-5.9-1.3-1.3-2.3-1.9-2.3-1.2s-.9.3-2.1-.8c-1.1-1-4.1-2.5-6.7-3.2-2.6-.7-7.3-2.3-10.4-3.6-6.8-2.7-7.5-2.8-5.8-.8 1 1.2.2 1.1-4.1-.4-3-1-6-1.6-6.7-1.4-.7.3-1.8 0-2.5-.5-.7-.6-4.2-1.3-7.7-1.6-3.6-.3-11.3-1.1-17.2-1.7-8.2-.9-11.4-.9-14 .1-1.8.6-6.9 1.6-11.3 2-4.4.5-10.2 1.4-13 1.9-2.7.6-12.2 2.1-21 3.2-10.2 1.4-16.4 2.7-17.4 3.6-1 1.1-2.6 1.3-5.5.8-5.8-.9-13.7-.6-15.5.6-1.2.7-.5.8 2.4.4 2.2-.4 3.7-.4 3.4 0-.4.3-8.5 2-18 3.6-9.6 1.6-18.2 3.2-19.3 3.5-1.2.4-1.6.2-1.2-.5.8-1.3-.6-1.5-1.9-.2-.6.4-5 2-10 3.5-13 3.9-23 9.1-29.1 15.3-5.7 5.7-10.8 13.5-10.1 15.5.2.7 1.1-.3 1.9-2.2 2.8-6.5 9.5-13.7 16.6-18 4.3-2.5 7.5-3.8 8.6-3.4.9.4 2.4 0 3.4-.7 2.9-2.4 5.8-3.7 10.3-4.9 2.4-.6 5.2-1.3 6.2-1.6.9-.3 1.7-.1 1.7.4 0 .9-10.6 5.2-13 5.2-.7 0-2.8 1.1-4.6 2.5-3.6 2.7-5 3.1-5.6 1.4-.2-.6-3 1-6.2 3.6-3.4 2.8-5.3 5-4.7 5.4.7.5-.7 3-3.7 6.7-2.6 3.3-5.3 7-5.9 8.2-1.4 2.4-1.8 12.2-.5 10.6.8-.9 2.6-6.4 3.6-11.4.7-3 12.3-14.9 18.9-19.1 2.6-1.7 6.5-3.3 8.7-3.6 2.2-.3 4-.9 4-1.3 0-1.1 6.9-3.7 13-4.9 12.8-2.4 14.4-2.4 9 .4-3.4 1.7-4.4 1.9-3.5.5.3-.6-.1-1-.9-1-.9 0-1.6.7-1.6 1.6 0 1.3-.7 1.5-3.9.9-2.4-.4-4.2-.2-4.6.4-.3.6-1.3 1.1-2.1 1.1s-2.6 1.1-4 2.5c-1.9 1.9-3.5 2.5-6.9 2.5-3.6 0-4.8.5-6.1 2.5-1.9 2.9-1.2 4.5 1.6 3.8 3.2-.9 2.3 1.3-2 4.7-2.3 1.8-4.7 4.7-5.5 6.6-.8 1.9-1.8 3.4-2.2 3.4-.4 0-.9 1.5-1 3.3-.6 7.6-22.1 38.5-25.9 37-.8-.3-1.4-.1-1.4.5 0 .5-.9 1.2-2 1.5-2 .5-2.9 3.7-.9 3.7.5 0 .7.5.4 1-.4.6-1 .8-1.5.5-1-.6-3.1 5.1-2.4 6.9.3.8-1.6 3.1-4.4 5.4-4.5 3.8-4.9 4.5-5 8.7 0 2.5-.5 5.1-1 5.8-.6.7-1 4-1 7.3.1 3.4-.2 6.6-.6 7.2-.3.6-.2 1.3.3 1.7.6.3.7 2.2.4 4.3-.3 2-.6 5.9-.8 8.7-.1 2.7-.5 5.7-.8 6.5-3.2 8.3-4.9 34.5-2 31.6 1.5-1.5 3.4 5 2.8 9.6-.6 4-.2 5.7 2.1 10.4 2.9 5.9 2.9 5.8 2.4 24.4-.1 8.1.6 18.3 1.7 21.5.8 2.5 1.1 3.8 1.8 10 .4 2.7 1.4 6.5 2.2 8.4 4 8.8 6.5 18 7 25.9.6 7.9.9 8.8 3.9 12 2.6 2.8 3.2 4.1 2.7 6.3-.3 1.6-.2 3.6.2 4.6.5 1 .9 3.1 1.1 4.8.5 6.1 3.4 16.4 6.1 22.5 5.4 11.8 20.1 27.1 29.8 31 6.5 2.6 12.5 6.6 12.5 8.4.1.6 4.3 5.6 9.5 11s9.5 10.4 9.5 11.1c0 .6 1.1 2.2 2.5 3.5 1.4 1.3 2.5 2.7 2.5 3.2 0 .4 1.7 3.6 3.8 7 5.4 8.9 5.5 9.2 5.7 20.4.1 5.5.7 13.8 1.3 18.5 2.6 20.6 3.4 35.9 2.7 54.4-.8 22.7-.8 22.1-.4 31.5.4 10.3-.3 12-4.9 12-2.1 0-4.6-.6-5.7-1.3-1.1-.8-5.1-2.2-9-3.2-3.8-1.1-10.6-3.6-15-5.6-4.4-2-9.9-4.3-12.3-5-2.7-.8-5.1-2.3-6.4-4.2-2-2.8-2.3-2.9-8.2-2.3-7.6.9-16.3-1.6-26.2-7.4-3.8-2.2-7.3-4-7.7-4-.5 0-2.2-1.1-3.7-2.3-4-3.4-13.7-5.3-18.6-3.7-4.9 1.7-12 8.3-14.9 14-6.2 12.2-9.7 22.6-10.1 29.3-.2 3.7-.5 7.1-.8 7.5-.2.4-4.8 3.4-10 6.7-16.1 9.9-25.5 21.1-31.7 37.6-5.3 14.1-6 15.6-8.9 17.7l-2.7 2-5.5-5.6c-3-3.1-8.8-9.5-12.9-14.2C56.6 668 32.2 473 114.1 310.8 194.5 151.7 363.2 55.3 540.5 67zM354 216.9c0 1-3.5 2.1-6.9 2.1-2.4 0-2.4 0-.5-1.5 2.1-1.6 7.4-2 7.4-.6zM670.5 271c.3.5.1 1-.4 1-.6 0-1.1-.5-1.1-1 0-.6.2-1 .4-1 .3 0 .8.4 1.1 1zm9.6 8c3 2.8 4.5 4.6 3.4 4.1-2.8-1.4-11.2-9.1-9.9-9.1.5 0 3.5 2.3 6.5 5zm27.9 40.8c0 1.5-.2 1.5-1 .2-1.3-2-1.3-3.3 0-2.5.6.3 1 1.4 1 2.3zm-2 73.4c0 1.8-.2 2-.9.8-.6-.8-.7-1.8-.5-2.2.9-1.4 1.4-.9 1.4 1.4z"/><path d="M364.8 195.7c.6.2 1.8.2 2.5 0 .6-.3.1-.5-1.3-.5-1.4 0-1.9.2-1.2.5zM664 255.8c0 .5 1.4 2.1 3 3.7 2.1 2 3 2.4 3 1.4 0-.9-1-2.5-2.3-3.7-2.4-2.3-3.7-2.8-3.7-1.4zM671 257.9c0 .5.7 1.2 1.6 1.5 1.4.5 1.5.4.4-.9-1.4-1.7-2-1.9-2-.6z"/></svg>